<?xml version="1.0" ?>
<svg color="white" enable-background="new 0 0 52 52" id="Layer_1" version="1.1" viewBox="0 0 52 52" xml:space="preserve"
     xmlns="http://www.w3.org/2000/svg"><g><g><g><path fill="white" d="M32,18.7578125H20V9h12V18.7578125z M22,16.7578125h8V11h-8V16.7578125z"/></g></g><g><g><polygon fill="white" points="45,32.3032227 43,32.3032227 43,16.8183594 31,16.8183594 31,14.8183594 45,14.8183594    "/></g></g><g><g><path fill="white" d="M50,43H38V31.3032227h12V43z M40,41h8v-7.6967773h-8V41z"/></g></g><g><g><polygon fill="white"  points="9,32.3251953 7,32.3251953 7,14.8183594 21,14.8183594 21,16.8183594 9,16.8183594    "/></g></g><g><g><path fill="white" d="M14,43H2V31.3032227h12V43z M4,41h8v-7.6967773H4V41z"/></g></g></g></svg>